# xmcd
#
# Track frame offsets:
# 150
# 17100
# 27300
# 38700
# 51825
# 65100
# 78150
# 89100
# 100950
# 114600
# 129300
# 144300
# 156375
# 169050
# 188175
#
# Disc length: 2666 seconds
#
#
# Revision: 2
# Processed by: cddbd v1.4PL0 Copyright (c) Steve Scherf et al.
# Submitted via: FreeRIP 2.51 
#
DISCID=ce0a680f
DTITLE=Original Artist - Original Pop Best
DYEAR=1900
DGENRE=
TTITLE0=Beyond The Blue Horizon
TTITLE1=What A Wonderful World
TTITLE2=Smoke Gets In Your Eyes
TTITLE3=Happy Together
TTITLE4=Oh ! Pretty Woman
TTITLE5=When A Man Loves A Woman
TTITLE6=Rain
TTITLE7=Only You
TTITLE8=My Girl
TTITLE9=Tie A Yellow Ribbon Round ...
TTITLE10=For The Good Times
TTITLE11=Past Present and Future
TTITLE12=Raindrops Keep Falling On My Head
TTITLE13=Reflections Of My Life
TTITLE14=The End Of The World
EXTD=
EXTT0=Lou Christie
EXTT1=Louis Amstrong
EXTT2=The Platters
EXTT3=The Turtles
EXTT4=Ray Orbison
EXTT5=Percy Sledge
EXTT6=Jose Feliciano
EXTT7=The Platters
EXTT8=Temptations
EXTT9=Drifters
EXTT10=Kenny Rogers
EXTT11=Shangri - Las
EXTT12=BJ. Thomas
EXTT13=Marmalade
EXTT14=Skeeter Davis
PLAYORDER=
